<svg width="26.000000" height="26.000000" viewBox="0 0 26 26" fill="none" xmlns="http://www.w3.org/2000/svg" xmlns:xlink="http://www.w3.org/1999/xlink">
	<desc>
			Created with Pixso.
	</desc>
	<defs>
		<clipPath id="clip5_7213">
			<rect id="Linear / Weather / Clouds " width="26.000000" height="26.000000" fill="white"/>
		</clipPath>
	</defs>
	<g clip-path="url(#clip5_7213)">
		<path id="Vector" d="M8.76758 10.9277C8.56885 10.3981 8.46045 9.82532 8.46045 9.22754C8.46045 6.52454 10.6777 4.33337 13.4128 4.33337C15.9607 4.33337 18.0591 6.23462 18.3345 8.67969M8.04785 18.2001C5.99634 18.2001 4.3335 16.5566 4.3335 14.5294C4.3335 12.5022 5.99634 10.8589 8.04785 10.8589C8.29395 10.8589 8.53467 10.8826 8.76758 10.9277C9.25659 11.0226 9.71143 11.2124 10.1113 11.4769M15.0637 8.69031C15.5801 8.50989 16.1357 8.41187 16.7144 8.41187C17.2817 8.41187 17.8269 8.5061 18.3345 8.67969C20.2742 9.3429 21.6667 11.1637 21.6667 13.3059" stroke="#FFFFFF"/>
		<path id="Vector" d="M17.3745 15.723C17.7102 15.6104 18.0713 15.5491 18.4475 15.5491C18.8164 15.5491 19.1707 15.6079 19.5005 15.7164C20.7612 16.131 21.6665 17.2689 21.6665 18.6078C21.6665 20.2972 20.2253 21.6666 18.4475 21.6666L12.8142 21.6666C11.4807 21.6666 10.3999 20.6395 10.3999 19.3726C10.3999 18.1056 11.4807 17.0785 12.8142 17.0785C12.9741 17.0785 13.1306 17.0933 13.282 17.1215C13.5999 17.1808 13.8955 17.2994 14.1555 17.4647M13.282 17.1215C13.1528 16.7905 13.0825 16.4325 13.0825 16.0588C13.0825 14.3695 14.5237 13 16.3015 13C17.9575 13 19.3215 14.1882 19.5005 15.7164" stroke="#FFFFFF" stroke-linecap="round"/>
	</g>
</svg>
