<svg width="26.000000" height="26.000000" viewBox="0 0 26 26" fill="none" xmlns="http://www.w3.org/2000/svg" xmlns:xlink="http://www.w3.org/1999/xlink">
	<desc>
			Created with Pixso.
	</desc>
	<defs>
		<clipPath id="clip5_7239">
			<rect id="Linear / Weather / Cloud" width="26.000000" height="26.000000" fill="white"/>
		</clipPath>
	</defs>
	<g clip-path="url(#clip5_7239)">
		<path id="Vector" d="M15.0635 10.4236C15.5798 10.2432 16.1355 10.1451 16.7141 10.1451C17.2815 10.1451 17.8267 10.2394 18.3342 10.413C20.2739 11.0762 21.6665 12.897 21.6665 15.0392C21.6665 17.7422 19.4492 19.9333 16.7141 19.9333L8.04761 19.9333C5.99609 19.9333 4.33325 18.2899 4.33325 16.2627C4.33325 14.2355 5.99609 12.5922 8.04761 12.5922C8.2937 12.5922 8.53442 12.6158 8.76733 12.661C9.25635 12.7559 9.71118 12.9457 10.1111 13.2102M8.76733 12.661C8.5686 12.1313 8.46021 11.5586 8.46021 10.9608C8.46021 8.25781 10.6775 6.06665 13.4126 6.06665C15.9604 6.06665 18.0588 7.9679 18.3342 10.413" stroke="#FFFFFF" stroke-linecap="round"/>
	</g>
</svg>
