<svg width="24.000000" height="24.000000" viewBox="0 0 24 24" fill="none" xmlns="http://www.w3.org/2000/svg" xmlns:xlink="http://www.w3.org/1999/xlink">
	<desc>
			Created with Pixso.
	</desc>
	<defs/>
	<path id="path" d="M21 13.6675L21 5.25C21 5.09741 20.9883 4.94751 20.9624 4.80005C20.5054 2.11255 15.9961 0 10.5 0C5.00391 0 0.494629 2.11011 0.0375977 4.80005C0.0141602 4.94507 0 5.09253 0 5.24243L0 17.2C0.0539551 20.0774 4.73438 22.3999 10.5 22.3999C12.0867 22.3999 13.5891 22.2251 14.9368 21.9099C15.8625 23.1826 17.311 24 18.9375 24C21.7336 24 24 21.5825 24 18.6001C24 16.3999 22.7671 14.51 21 13.6675ZM1.5 7.95508C3.3374 9.47998 6.67969 10.5 10.5 10.5C14.3203 10.5 17.6626 9.47998 19.5 7.95508L19.5 9.88257C19.207 10.0674 18.8931 10.2424 18.5625 10.4099C16.3828 11.5 13.521 12.1001 10.5 12.1001C7.479 12.1001 4.61719 11.5 2.4375 10.4099C2.10474 10.2424 1.79297 10.0674 1.5 9.88257L1.5 7.95508ZM1.5 11.855C3.3374 13.3799 6.67969 14.3999 10.5 14.3999C14.3203 14.3999 17.6626 13.3799 19.5 11.855L19.5 13.2324C19.3149 13.21 19.1274 13.2 18.9375 13.2C17.1868 13.2 15.6445 14.1475 14.7351 15.5874C13.4016 15.8574 11.9695 16 10.5 16C7.479 16 4.61719 15.3999 2.4375 14.3101C2.10474 14.1426 1.79297 13.9675 1.5 13.7825L1.5 11.855ZM10.5 20C7.479 20 4.61719 19.3999 2.4375 18.3101C2.10474 18.1426 1.79297 17.9675 1.5 17.7825L1.5 15.855C3.3374 17.3799 6.67969 18.3999 10.5 18.3999C11.6882 18.3999 12.8296 18.3 13.8938 18.1201C13.8796 18.2776 13.875 18.4399 13.875 18.6001C13.875 18.9851 13.9126 19.3625 13.9851 19.7251C12.8696 19.905 11.6978 20 10.5 20ZM21.457 21.2876C20.7844 22.0049 19.8892 22.3999 18.9375 22.3999C18.054 22.3999 17.2195 22.0601 16.5657 21.4351C16.0781 20.915 15.6023 20.1226 15.457 19.4226C15.4009 19.155 15.3726 18.8774 15.3726 18.5974C15.3726 18.3174 15.4009 18.0425 15.4546 17.7749C15.6001 17.0725 15.9282 16.4299 16.4155 15.9099C17.0906 15.1951 17.9858 14.8 18.9375 14.8C19.6875 14.8 20.4023 15.0449 21 15.5C21.1616 15.6226 21.314 15.76 21.457 15.9126C22.1296 16.6299 22.5 17.585 22.5 18.6001C22.5 19.615 22.1296 20.5701 21.457 21.2876ZM19.125 19.2C18.7102 19.2 18.375 18.8425 18.375 18.3999L18.375 16.3999C18.375 15.9575 18.7102 15.6001 19.125 15.6001C19.5398 15.6001 19.875 15.9575 19.875 16.3999L19.875 18.3999C19.875 18.8425 19.5398 19.2 19.125 19.2ZM19.125 21.2C18.7102 21.2 18.375 20.8425 18.375 20.3999C18.375 19.9575 18.7102 19.6001 19.125 19.6001C19.5398 19.6001 19.875 19.9575 19.875 20.3999C19.875 20.8425 19.5398 21.2 19.125 21.2Z" fill-rule="nonzero" fill="#FB8A2E"/>
</svg>
