<svg width="15.618652" height="20.913330" viewBox="0 0 15.6187 20.9133" fill="none" xmlns="http://www.w3.org/2000/svg" xmlns:xlink="http://www.w3.org/1999/xlink">
	<desc>
			Created with Pixso.
	</desc>
	<defs/>
	<path id="path" d="M8.57568 15.2251L7.04272 15.2251C6.92798 15.2251 6.83667 15.3164 6.83667 15.4312L6.83667 17.0203C6.83667 17.1353 6.92798 17.2266 7.04272 17.2266L8.57568 17.2266C8.69043 17.2266 8.78198 17.1353 8.78198 17.0203L8.78198 15.4312C8.78198 15.3188 8.68823 15.2251 8.57568 15.2251ZM8.67871 5.71411L6.93726 5.71411C6.82007 5.71411 6.72632 5.81006 6.7312 5.92725L6.99585 13.9688C7.00073 14.0813 7.09204 14.168 7.20215 14.168L8.36011 14.168C8.47021 14.168 8.56152 14.0813 8.56616 13.9688L8.88501 5.92969C8.88965 5.8125 8.7959 5.71411 8.67871 5.71411ZM11.3787 3.43604C10.978 2.86646 10.1787 1.76245 9.53418 0.878906C9.13354 0.328125 8.48657 0 7.80688 0C7.11548 0 6.4873 0.321045 6.08179 0.878906C5.45386 1.74146 4.67798 2.81006 4.2959 3.35156C2.08105 6.48511 -0.754883 11.1023 0.185059 15.0352C0.599854 16.7742 1.54443 18.2532 2.92017 19.3101C4.17407 20.2734 5.7561 20.8406 7.37793 20.9062C7.48804 20.9109 7.59595 20.9133 7.70386 20.9133C7.72021 20.9133 7.89819 20.9133 7.91699 20.9133C8.0249 20.9133 8.13501 20.9109 8.24512 20.9062C9.86475 20.8406 11.4468 20.2759 12.7007 19.3101C14.0764 18.2532 15.021 16.7742 15.4358 15.0352C16.364 11.1353 13.5654 6.54834 11.3787 3.43604ZM13.5654 14.5923C13.2537 15.8999 12.5483 17.0039 11.5264 17.7891C10.5842 18.5132 9.39136 18.9399 8.16553 18.989C8.08105 18.9915 7.99683 18.9915 7.90527 18.9937L7.70142 18.9961C7.61694 18.9961 7.53491 18.9937 7.45068 18.9915C6.22485 18.9421 5.02954 18.5156 4.0874 17.7915C3.06543 17.0063 2.36011 15.8999 2.04834 14.5945C1.29126 11.4165 3.8623 7.28906 5.86157 4.46021C6.24121 3.92334 7.01001 2.86401 7.63354 2.00854C7.68726 1.93604 7.75757 1.91943 7.80933 1.91943C7.86084 1.91943 7.93115 1.93604 7.98511 2.00854C8.62256 2.88281 9.41479 3.9751 9.81079 4.5376C11.782 7.34766 14.3154 11.4421 13.5654 14.5923Z" fill-rule="nonzero" fill="#A66F1C"/>
</svg>
