<svg width="26.000000" height="26.000000" viewBox="0 0 26 26" fill="none" xmlns="http://www.w3.org/2000/svg" xmlns:xlink="http://www.w3.org/1999/xlink">
	<desc>
			Created with Pixso.
	</desc>
	<defs>
		<clipPath id="clip5_7225">
			<rect id="Linear / Security / Eye" width="26.000000" height="26.000000" fill="white"/>
		</clipPath>
	</defs>
	<g clip-path="url(#clip5_7225)">
		<path id="Vector" d="M13.0002 6.06677C16.6245 6.06677 19.0911 8.23303 20.562 10.1438C21.2986 11.1008 21.6667 11.5793 21.6667 13.0001C21.6667 14.4209 21.2986 14.8994 20.562 15.8563C19.0911 17.7672 16.6245 19.9335 13.0002 19.9335C9.37598 19.9335 6.90918 17.7672 5.43848 15.8563C4.7019 14.8994 4.3335 14.4209 4.3335 13.0001C4.3335 11.5793 4.7019 11.1008 5.43848 10.1438C6.90918 8.23303 9.37598 6.06677 13.0002 6.06677Z" stroke="#FFFFFF"/>
		<path id="Vector" d="M13.0002 15.6C11.5642 15.6 10.4001 14.4359 10.4001 13C10.4001 11.5641 11.5642 10.4 13.0002 10.4C14.436 10.4 15.6001 11.5641 15.6001 13C15.6001 14.4359 14.436 15.6 13.0002 15.6Z" stroke="#FFFFFF"/>
	</g>
</svg>
