<svg width="18.676514" height="21.524902" viewBox="0 0 18.6765 21.5249" fill="none" xmlns="http://www.w3.org/2000/svg" xmlns:xlink="http://www.w3.org/1999/xlink">
	<desc>
			Created with Pixso.
	</desc>
	<defs/>
	<path id="path" d="M5.27441 21.5249C3.84937 18.5249 4.59937 16.8 5.72437 15.2251C6.92432 13.425 7.22437 11.7 7.22437 11.7C7.22437 11.7 8.19922 12.8999 7.82422 14.8501C9.47437 12.9751 9.77441 9.9751 9.54932 8.8501C13.2993 11.4751 14.9492 17.25 12.7744 21.45C24.3242 14.8501 15.6243 5.0249 14.1243 3.9751C14.6494 5.1001 14.7244 6.9751 13.6743 7.875C11.9492 1.2749 7.67432 0 7.67432 0C8.19922 3.375 5.87427 7.05005 3.62427 9.82495C3.54932 8.4751 3.47437 7.57495 2.72437 6.2251C2.57422 8.69995 0.699219 10.6499 0.174316 13.125C-0.500732 16.5 0.699219 18.8999 5.27441 21.5249Z" fill-rule="nonzero" fill="#FB8A2E"/>
</svg>
