<svg width="15.439453" height="19.071899" viewBox="0 0 15.4395 19.0719" fill="none" xmlns="http://www.w3.org/2000/svg" xmlns:xlink="http://www.w3.org/1999/xlink">
	<desc>
			Created with Pixso.
	</desc>
	<defs/>
	<path id="path" d="M15.4395 7.30164L15.4395 0.872192C14.3704 1.4845 12.0186 2.01782 7.05225 0.468994C3.63159 -0.597778 1.2854 0.368652 0 1.2522L0 7.30164C0 7.59546 0.202148 7.8418 0.475098 7.90955L0.475098 11.704C0.247559 11.704 0 11.8884 0 12.116L0 13.9327C0 15.5496 1.09692 16.9225 2.5835 17.3442L2.57837 18.2328C2.57837 18.6943 2.95581 19.0719 3.41748 19.0719L3.6272 19.0719C4.08862 19.0719 4.46631 18.6943 4.46631 18.2328L4.46631 17.4777L10.9731 17.4777L10.9731 18.2328C10.9731 18.6943 11.3508 19.0719 11.8123 19.0719L12.022 19.0719C12.4834 19.0719 12.8611 18.6943 12.8611 18.2328L12.8611 17.4357C14.3477 17.0139 15.4395 15.5496 15.4395 13.9327L15.4395 12.116C15.4395 11.8884 15.2549 11.704 15.0273 11.704L14.9644 7.90955C15.2371 7.8418 15.4395 7.59546 15.4395 7.30164ZM7.71973 16.3169C6.73096 16.3169 5.92969 15.5154 5.92969 14.5267C5.92969 13.538 6.73096 12.7365 7.71973 12.7365C8.7085 12.7365 9.51001 13.538 9.51001 14.5267C9.51001 15.5154 8.7085 16.3169 7.71973 16.3169ZM14.3489 11.704L1.09058 11.704L1.09058 7.92798L14.3489 7.92798L14.3489 11.704Z" fill-rule="nonzero" fill="#FFFFFF"/>
</svg>
