<svg width="23.333496" height="21.666870" viewBox="0 0 23.3335 21.6669" fill="none" xmlns="http://www.w3.org/2000/svg" xmlns:xlink="http://www.w3.org/1999/xlink">
	<desc>
			Created with Pixso.
	</desc>
	<defs/>
	<path id="path" d="M11.6462 6.41296C9.01831 6.41296 6.88013 8.39819 6.88013 10.8385C6.88013 13.2788 9.01831 15.264 11.6462 15.264C14.2742 15.264 16.4124 13.2788 16.4124 10.8385C16.4124 8.39819 14.2742 6.41296 11.6462 6.41296ZM11.6462 13.0973C10.3047 13.0973 9.21387 12.0839 9.21387 10.8385C9.21387 9.59277 10.3049 8.57971 11.6462 8.57971C12.9875 8.57971 14.0789 9.59314 14.0789 10.8385C14.0791 12.0839 12.9878 13.0973 11.6462 13.0973ZM10.502 0L12.8352 0L12.8352 4.11633L10.502 4.11633L10.502 0ZM10.4983 17.5505L12.8315 17.5505L12.8315 21.6669L10.4983 21.6669L10.4983 17.5505ZM15.9578 5.31909L19.0923 2.40845L20.7424 3.94055L17.6079 6.8512L15.9578 5.31909ZM2.59106 17.7264L5.72559 14.8158L7.37549 16.3479L4.24097 19.2585L2.59106 17.7264ZM15.9553 16.3501L17.6052 14.818L20.7397 17.7286L19.0898 19.2607L15.9553 16.3501ZM2.59351 3.93811L4.24365 2.40588L7.37817 5.31653L5.72803 6.84875L2.59351 3.93811ZM18.9006 9.75183L23.3335 9.75183L23.3335 11.9183L18.9006 11.9183L18.9006 9.75183ZM0 9.74854L4.43286 9.74854L4.43286 11.915L0 11.915L0 9.74854Z" fill-rule="nonzero" fill="#FFFFFF"/>
</svg>
