<svg width="12.000000" height="14.500000" viewBox="0 0 12 14.5" fill="none" xmlns="http://www.w3.org/2000/svg" xmlns:xlink="http://www.w3.org/1999/xlink">
	<desc>
			Created with Pixso.
	</desc>
	<defs/>
	<path id="矢量 4" d="M11.905 10.7144C11.8865 10.689 10.042 8.11865 10.042 6.22412C10.042 3.59204 8.85205 2.24316 7.5 1.7395L7.5 1.5C7.5 0.672852 6.8269 0 6 0C5.17285 0 4.5 0.672852 4.5 1.5L4.5 1.75903C4.33154 1.88232 4.24854 2.09961 4.31543 2.30957C4.39941 2.57251 4.6814 2.71655 4.94385 2.63354C5.22144 2.54492 5.521 2.5 5.83301 2.5L6.16699 2.5C7.96753 2.5 9.04199 3.89209 9.04199 6.22363C9.04199 7.91162 10.1809 9.90137 10.7634 10.8096C9.86694 11.2185 7.90332 12 6 12C4.10132 12 2.13403 11.2129 1.23682 10.8025C1.81982 9.89648 2.95801 7.91162 2.95801 6.22363C2.95801 5.24805 3.1394 4.43896 3.49731 3.81836C3.6355 3.5791 3.55347 3.27344 3.31445 3.1355C3.07397 2.99707 2.76953 3.07959 2.63135 3.31836C2.18433 4.09253 1.95801 5.06982 1.95801 6.22363C1.95801 8.11768 0.114014 10.6807 0.095459 10.7061C0.0109863 10.8225 -0.0195312 10.9705 0.0124512 11.1113C0.0444336 11.2515 0.135498 11.3721 0.262451 11.4399C0.35083 11.488 1.94043 12.335 3.91138 12.7605C4.24585 13.7979 5.06494 14.5 6 14.5C6.93481 14.5 7.75391 13.7979 8.08789 12.761C10.0583 12.3374 11.6479 11.4956 11.7363 11.448C11.8635 11.3799 11.9553 11.26 11.9875 11.1196C12.0195 10.979 11.9895 10.8315 11.905 10.7144ZM5.83301 1.5C5.71948 1.5 5.61084 1.51562 5.5 1.52441C5.5 1.24902 5.72437 1 6 1C6.27539 1 6.5 1.22461 6.5 1.5C6.38794 1.49048 6.27686 1.5 6.16699 1.5L5.83301 1.5ZM6 13.5C5.65088 13.5 5.32593 13.2905 5.09399 12.9485C5.39404 12.98 5.69702 13 6 13C6.30298 13 6.60596 12.98 6.90601 12.9485C6.67383 13.291 6.34839 13.5 6 13.5Z" fill-rule="nonzero" fill="#8D8D8D"/>
</svg>
