<svg width="23.997559" height="16.469482" viewBox="0 0 23.9976 16.4695" fill="none" xmlns="http://www.w3.org/2000/svg" xmlns:xlink="http://www.w3.org/1999/xlink">
	<desc>
			Created with Pixso.
	</desc>
	<defs/>
	<path id="path" d="M7.52588 7.20239L6.99609 8.52197L6.79932 9.01636L7.16016 9.40552L8.36475 10.7063L7.68042 11.4141L7.19287 11.918L7.60083 12.4875L7.73682 12.6772L1.82349 13.6265L0.963379 8.25464L7.52588 7.20239ZM8.0835 6.26245L0 7.55859L1.12744 14.5874L9.21094 13.2915L8.28271 11.9976L9.52026 10.718L7.77661 8.83594L8.55005 6.90942L8.0835 6.26245ZM12.9656 7.50464L22.9712 10.186L21.5625 15.4407L10.8423 12.5671L10.7671 12.2039L11.7681 11.8032L12.5063 11.5078L12.2507 10.7554L11.5991 8.82422L12.7102 7.75073L12.9656 7.50464ZM11.9673 6.36792L12.1265 7.14844L10.6335 8.59229L11.4563 11.0227L9.80396 11.686L10.1226 13.2446L22.1555 16.4695L23.9976 9.59302L11.9673 6.36792ZM5.48657 3.15015L6.15747 2.46216L7.75 4.01489L7.07935 4.70288L5.48657 3.15015ZM12.5005 4.65063L14.0532 3.05811L14.7412 3.729L13.1885 5.32153L12.5005 4.65063ZM9.64917 0L10.6101 0L10.6101 3.48755L9.64917 3.48755L9.64917 0Z" fill-rule="nonzero" fill="#975520"/>
</svg>
