<svg width="22.098389" height="22.684448" viewBox="0 0 22.0984 22.6844" fill="none" xmlns="http://www.w3.org/2000/svg" xmlns:xlink="http://www.w3.org/1999/xlink">
	<desc>
			Created with Pixso.
	</desc>
	<defs/>
	<path id="path" d="M21.8054 16.2705L17.9133 14.2559L21.5789 13.2291C21.8877 13.1426 22.0598 12.8481 21.9631 12.5713C21.8667 12.2944 21.5381 12.14 21.2295 12.2267L16.5342 13.542L12.2207 11.3092L16.4583 9.1156L21.2295 10.4523C21.479 10.4521 21.885 10.3323 21.9631 10.1077C22.0598 9.83081 21.8877 9.53638 21.5789 9.44983L17.8374 8.40173L21.7761 6.36292C22.0564 6.2179 22.1523 5.89685 21.9905 5.64563C21.8289 5.39453 21.4707 5.30847 21.1904 5.45349L17.2986 7.46814L18.1394 4.10876C18.2102 3.82581 18.0117 3.54492 17.696 3.48145C17.3801 3.41772 17.0671 3.59595 16.9963 3.87878L15.9192 8.18201L11.6355 10.3994L11.6355 6.02051L15.2822 3.00903C15.5203 2.8125 15.5354 2.48035 15.3164 2.26709C15.0972 2.05383 14.7266 2.04004 14.4888 2.23657L11.6355 4.59277L11.6355 0.525146C11.6355 0.235107 11.3733 0 11.0498 0C10.7266 0 10.4641 0.235107 10.4641 0.525146L10.4641 4.59375L7.60962 2.23657C7.37183 2.04004 7.00146 2.05371 6.78223 2.26697C6.56299 2.48022 6.57812 2.8125 6.81616 3.00891L10.4641 6.02161L10.4641 10.4L6.19604 8.19067L5.1189 3.88745C5.0481 3.60449 4.73486 3.42639 4.41919 3.49011C4.10352 3.55359 3.90503 3.83447 3.97607 4.11743L4.81689 7.47681L0.907959 5.45349C0.62793 5.30847 0.269531 5.39441 0.10791 5.64563C-0.0539551 5.89685 0.0419922 6.2179 0.322266 6.36292L4.27783 8.4104L0.536621 9.4585C0.227783 9.54504 0.0556641 9.83948 0.1521 10.1163C0.230469 10.3411 0.46167 10.485 0.710938 10.485L5.65698 9.12439L9.87793 11.3092L5.58105 13.5333L0.885742 12.218C0.577148 12.1315 0.248535 12.2858 0.1521 12.5626C0.0556641 12.8394 0.227783 13.1339 0.536621 13.2205L4.2019 14.2472L0.292969 16.2706C0.0129395 16.4156 -0.083252 16.7367 0.0786133 16.9879C0.187012 17.1564 0.384033 17.2505 0.586426 17.2505C0.685791 17.2505 0.786377 17.2278 0.878662 17.1801L4.83423 15.1326L3.97607 18.5615C3.90527 18.8445 4.10352 19.1254 4.41919 19.1888C4.68726 19.1888 5.05786 19.0356 5.1189 18.7914L6.21362 14.4186L10.4644 12.2183L10.4644 16.6747L6.81616 19.6874C6.57812 19.8839 6.56299 20.2161 6.78223 20.4293C7.00122 20.6426 7.37183 20.6561 7.60962 20.4598L10.4641 18.1025L10.4641 22.1593C10.4641 22.4493 10.7266 22.6844 11.0498 22.6844C11.3733 22.6844 11.6355 22.4493 11.6355 22.1593L11.6355 18.1038L14.4888 20.4598C14.6013 20.5529 14.7434 20.5988 14.8853 20.5988C15.0432 20.5988 15.2009 20.5417 15.3164 20.4294C15.5354 20.2161 15.5203 19.8839 15.2822 19.6874L11.6355 16.6759L11.6355 12.219L15.9019 14.4274L16.9963 18.8002C17.0576 19.0444 17.2993 19.2104 17.5674 19.2104C17.8831 19.147 18.2102 18.8531 18.1394 18.5702L17.281 15.1412L21.22 17.1801C21.312 17.2278 21.4128 17.2506 21.5122 17.2506C21.7146 17.2506 21.9114 17.1564 22.02 16.9879C22.1816 16.7367 22.0857 16.4156 21.8054 16.2705Z" fill-rule="nonzero" fill="#FFFFFF"/>
</svg>
